<?xml version="1.0"?>
<svg xmlns="http://www.w3.org/2000/svg" version="1.2" baseProfile="tiny" width="800" height="689" viewBox="0 0 800 689" stroke-linecap="round" stroke-linejoin="round">
<g id="fl_zips">
<path d="M 338.66 339.51 338.54 337.26 338.46 331.83 337.96 321.21 342.41 320.94 343.08 320.43 347.11 320.24 347.02 318.43 345.65 318.61 339.35 318.57 337.84 319 337.63 314.52 337.55 310.31 337.31 305.54 337.23 298.16 337.03 289.54 355.44 289.41 355.35 281.01 355.07 256.76 354.54 230.94 363.66 230.8 374.14 230.59 380.37 230.51 406.5 230.09 409.33 230.07 409.02 231.81 409.81 233.74 410.65 233.91 412.08 231.38 413.51 230.86 415.04 229.64 422.03 229.72 423.32 230.63 422.36 232.89 422.46 234.91 423.94 236.72 425.07 237.42 425.74 238.93 427.48 239.39 429.72 239.46 430.79 240.71 431.6 240.11 433.57 240.67 436.34 240.67 436.48 237.49 437.94 235.86 439.06 234.92 440.56 233.13 442.03 233.15 448.66 231.4 450.62 231.33 464.36 231.86 464.27 245 477.53 244.7 479.14 244.79 491.45 244.66 491.55 258.13 491.24 259.26 489.71 260.67 488.35 260.98 482.51 261.02 465.08 261.72 463.44 261.75 439.08 261.7 432.4 261.71 436.72 269.67 437.01 284.93 437.02 288.14 437.27 295.78 437.67 297.35 437.38 302.96 454.71 302.83 453.85 305.39 453.84 306.03 454.72 307.08 454.58 310.63 454.96 311.85 455.1 313.98 455.91 316.16 455.64 320.78 455.46 321.55 455.94 322.94 456.65 327.38 456.07 330.03 455.44 338.82 451.75 338.73 451.61 343.19 449.94 343.52 449.9 349.43 444.76 349.39 441.1 349.08 441.08 343.33 442.14 341.88 441.28 338.87 440.2 338.3 411.2 338.63 387.94 338.91 352.38 339.32 338.66 339.51 Z" id="34120"/>
<path d="M 358.55 506.67 360.26 508.06 362.04 509.08 363.26 510.25 364.15 511.49 364.24 513.5 362.82 514.33 360.46 514.81 358.2 514.84 356.09 515.47 355.56 515.9 354.35 518.65 353.71 519.06 352.23 518.93 351.45 517.17 352.62 516.16 352.86 514.95 350.86 514 351.64 511.57 350.64 511 349.94 512.6 349.49 514.82 348.72 515.25 347.46 514.82 346.99 513.6 347.2 512.48 345.73 508.96 344.41 508.16 344.52 507.53 345.59 506.84 347.96 507.37 354.96 507.09 358.55 506.67 Z" id="34140"/>
<path d="M 223.79 174.6 229.25 174.59 230.41 174.3 231.49 173.12 232.08 171.66 232.74 170.93 233.95 170.55 234.98 170.61 235.22 172.73 235.63 173.57 243.54 185.17 244.8 186.81 249.05 190.62 249.87 190.63 249.89 191.24 250.71 192.12 251.94 194.52 256.06 204.45 256.5 205.18 260.19 209.6 261.62 209.94 263.08 209.23 263.3 212.96 263.02 213.17 262.21 213.47 262.57 214.44 262.06 215.19 260.08 215.12 254.13 215.21 253.91 207.01 249.35 207.07 244.75 205.31 239.73 205.53 239.45 206.21 238.25 206.01 237.26 207.86 236.41 209 237.27 213.41 238.37 216.64 238.23 217.12 236.32 219.57 232.56 220.97 229.72 221.68 228.88 222.13 225.19 223.32 224.13 223.82 221.59 224.34 219.63 223.7 215.59 223.25 215.32 222.76 214.19 222.86 211.82 221.75 209.12 220.89 207.31 219.99 209.34 217.82 210.39 217.42 210.91 215.56 210.8 213.97 213.01 212.08 213.35 211.38 213.12 209.6 211.97 208.29 212.68 206.58 211.62 204.84 212.48 203.83 211.74 202.27 212.34 201.64 211.42 200.12 210.99 198.87 211.13 196.4 210.68 195.33 210.8 192.99 209.9 192.22 209.88 191.51 208.8 189.66 207.66 189.4 209.7 187.45 209.41 186.54 202.93 189.3 201.06 189.69 196.17 189.76 195.04 190.32 194.23 189.8 190.72 189.67 189 190 189.63 191.52 189.76 193.44 186.84 192.18 181.99 196.81 182.7 197.26 184.87 197.13 185.75 199.57 186.44 200.08 186.26 201.3 184.8 203.15 185.37 204.62 184.52 205.29 183.19 204.96 181.44 204.17 177.21 202.36 175.99 202.02 162.86 198.75 161.39 198.92 156.2 200.11 152.13 200.84 148.96 201 147.14 200.91 144.38 199.93 145.22 198.5 146.12 197.51 148.19 195.31 148.85 194.32 153.04 188.82 155.31 186.15 155.15 183.94 154.76 182.95 153.25 181.18 151.68 178.54 151.47 177.72 152.12 175.86 154.86 172.2 155.89 171.49 158.85 170.51 162.29 169.7 177.3 168.41 186.52 167.62 194.15 163.72 196.41 161.75 204.11 161.58 204.26 166.12 203.39 167.49 203.56 168.11 207.23 165.03 207.44 165.39 207.62 175.08 208.42 174.94 216.48 174.79 223.79 174.6 Z" id="33908"/>
<path d="M 246.33 245.19 246.75 246.36 246.01 246.89 245.04 248.92 244.74 251.19 245.32 253.99 247.71 255.44 248.96 255.69 249 256.76 250.63 269.33 249.65 269.84 247.5 270.23 246.01 269.69 244.52 268.81 243.95 268.01 243.8 266.32 242.44 265.36 242.39 264.19 240.62 262.02 240.55 260.97 239.53 259.92 239.66 261.7 238.8 261.99 237.84 259.29 236.51 257.31 235.08 254.84 233.7 253.51 232.59 252.07 230.71 250.37 229.69 249.09 227.63 247.36 225.94 245.33 225.7 244.3 223.54 242.33 218.69 242.21 216.47 240.08 215.67 237.27 215.37 234.11 213.21 230.97 209.51 227.59 204.73 223.84 199.26 220.87 190.15 216.8 185.52 214.96 182.62 213.43 180.85 212 179.8 210.59 179.02 208.42 179.27 205.99 180.79 204.41 181.44 204.17 183.19 204.96 184.52 205.29 185.37 204.62 184.8 203.15 186.26 201.3 186.44 200.08 185.75 199.57 184.87 197.13 182.7 197.26 181.99 196.81 186.84 192.18 189.76 193.44 189.63 191.52 189 190 190.72 189.67 194.23 189.8 195.04 190.32 196.17 189.76 201.06 189.69 202.93 189.3 209.41 186.54 209.7 187.45 207.66 189.4 208.8 189.66 209.88 191.51 209.9 192.22 210.8 192.99 210.68 195.33 211.13 196.4 210.99 198.87 211.42 200.12 212.34 201.64 211.74 202.27 212.48 203.83 211.62 204.84 212.68 206.58 211.97 208.29 213.12 209.6 213.35 211.38 213.01 212.08 210.8 213.97 210.91 215.56 210.39 217.42 209.34 217.82 207.31 219.99 209.12 220.89 211.82 221.75 214.19 222.86 215.32 222.76 215.59 223.25 219.63 223.7 221.59 224.34 223.97 225.64 227.34 227.23 230.11 228.17 232.91 228.69 235.57 230.66 240.86 235.94 243.75 240.03 246.33 245.19 Z" id="33931"/>
<path d="M 196.41 161.75 200.47 156.27 204.4 150.75 207.82 147.68 210.03 145.53 214.04 139.43 216.6 131.45 216.37 128.05 221.02 131.27 222.71 131.83 223.89 131.83 227.65 131.74 227.97 133.82 227.97 137.7 228.23 138.56 230.26 140.08 230.05 141.33 230.64 141.6 231.09 140.11 234.51 139.66 234.5 141.23 232.46 141.18 232.59 143.81 227.6 143.89 227.71 151.15 227.11 153.47 226.85 158.6 226.14 160.81 225.92 164.34 226.05 171.01 225.34 173.11 223.79 174.6 216.48 174.79 208.42 174.94 207.62 175.08 207.44 165.39 207.23 165.03 203.56 168.11 203.39 167.49 204.26 166.12 204.11 161.58 196.41 161.75 Z" id="33919"/>
<path d="M 386.09 119.69 388.51 119.66 387.52 120.79 386.09 121.07 386.09 119.69 Z M 386.09 119.69 385.28 119.7 385.28 121.08 384.47 121.09 384.47 119.7 382.86 119.73 382.85 121.75 371.28 121.87 371.28 122.21 364.5 122.21 361.91 120.68 357.2 119 354.56 117.75 352.91 115.86 353 113.9 352.96 107.91 352.46 107.92 352.44 106.3 352.76 105.53 352.61 97.41 352.51 88.36 353.31 88.14 353.08 86.41 354.09 85.48 355.78 85.31 355.71 84.82 357.47 84.64 357.86 84.05 356.43 83.26 356.08 81.98 357.55 82.19 358.39 83.28 359.83 81.14 362.55 81 377 80.76 381.89 80.79 382.04 84.86 389.06 84.76 389.15 88.89 393.62 88.77 395 88.85 402.27 88.8 402.27 88.63 407.09 88.6 407.11 86.58 405.48 86.59 405.44 84.47 407.16 84.45 407.22 80.57 407.24 82.44 407.5 104.97 407.4 105.95 407.48 113.52 406.57 113.52 406.63 115.54 407.44 115.54 407.56 121.39 404.33 121.53 401.9 121.49 399.49 121.64 393.01 121.66 392.97 119.63 392.22 118.85 392.95 118.25 392.89 115.58 392.08 115.58 392.03 113.44 392.84 113.44 392.82 111.41 393.62 111.41 393.59 109.38 392.79 109.39 392.73 105.15 388.23 105.2 388.31 107.39 385.88 107.43 385.96 109.45 385.15 109.46 385.22 111.49 386.03 111.48 386.1 113.5 387.71 113.67 387.71 115.62 386.1 115.64 386.09 119.69 Z" fill-rule="evenodd" id="33972"/>
<path d="M 104.02 92.75 102.72 93.11 102.2 94 102.04 96.5 101.43 97.89 100.74 102.13 101.04 104.45 100.18 106.18 99.27 108.66 99 110.92 99.3 114.55 99.63 115.53 100.97 115.68 101.24 117.85 100.7 117.92 102.93 121.72 101.34 122.03 98.25 122.09 98.25 123.94 96.13 124 95.86 123.14 94.84 122.15 94.01 122.17 93.95 124.21 89.45 124.62 89.47 123.4 88.66 122.6 89.67 121.46 89.72 120.6 88.68 120.8 87.87 119.57 88.52 118.62 87.8 117.37 86.83 117.81 87.5 115.17 86.88 115.06 86.26 116.41 86.43 117.63 88.05 118.37 87.62 119.76 88.95 121.21 88.39 121.86 87.45 121.51 87.47 122.59 87.9 123.62 87.48 124.46 87.67 125.2 88.97 126.4 88.91 127.86 87.14 130.11 85.37 133.23 84.93 135.99 55.21 137.38 50.73 123.18 49.45 115.54 48.9 113.55 48.52 110.73 48.28 100.02 48.04 95.26 48.62 89.67 49.4 86.9 52.02 81.01 52.22 80.24 51.29 76.59 51.22 74.92 55.93 72.59 57.62 71.15 58.99 70.37 59.79 69.54 61.44 68.93 65.27 68.66 67.87 68.32 72.03 68.02 76.64 69.08 81.71 69.8 85.69 70.61 88.16 71.28 91.67 71.33 93.07 71.85 95.13 74.51 94.33 74.9 94.68 76.2 96.55 79.42 98.95 81.18 100.98 85.25 101.74 88.22 103.26 89.77 104.14 91.39 104.02 92.75 Z" id="33922"/>
<path d="M 323.51 122.2 324.47 132.43 324.8 136.98 324.5 139.07 323.91 140.17 312.36 135.16 310.37 134.06 309.29 133.21 298.46 123.79 298.42 118.9 299.1 118.34 301.71 120.61 302.49 121 304.19 121.04 304.44 122.57 305.16 123.56 306.8 124.98 307.57 124.25 307.52 122.26 312.81 122.18 323.51 122.2 Z" id="33973"/>
<path d="M 338.94 406.87 339.16 385.61 339.28 382.03 339.23 378.37 339.22 378.21 347.6 380.47 350.48 381.03 353.06 381.2 358.76 381.24 358.8 382.69 359.99 383.85 360.78 383.42 361.62 384.4 360.99 385.36 361.82 385.59 361.84 386.34 362.59 386.86 362.52 387.87 364.73 388.36 366.18 389.3 367.85 389.61 369.05 389.37 370.93 388.29 372.62 387.94 375.82 389.04 380.33 391.63 380.96 391.65 387.26 394.24 387.36 394.97 386.46 396.55 385.9 398.57 386.63 400.63 386.1 401.6 385.37 405.66 384.44 406.25 381.75 406.94 381.04 408.55 383.93 409.05 383.82 410.45 384.29 411.44 384.4 413.51 383.42 414.81 395.14 415.14 395.63 414.88 401.41 414.67 401.67 415.12 404.62 415.11 404.61 415.57 406.86 415.56 407.35 448.43 407.61 466.9 406.86 467.63 405.87 469.57 405.97 471.67 405.63 473.14 405.64 474.52 404.78 476.24 405.97 476.73 414.24 483.23 415.54 484.01 427.3 487.89 437.53 491.75 439 491.58 438.84 481.98 439.02 481.45 440.52 481.27 440.78 480.73 440.77 473 450.35 472.69 468.65 472.69 468.63 456.32 468.71 456.2 468.83 438.89 474 438.79 475.31 439.43 486.1 449 494.43 456.98 494.72 457.49 494.78 460.06 494.93 479.32 495.95 480.2 503.67 480.13 513.83 480.11 491.78 512 502.37 514.57 507.51 514.87 513.04 515.77 521.2 519.2 520.03 521.01 514.33 531.68 512.73 536.22 511.15 540.32 510.39 540.33 508.47 542.32 509.28 543.61 508.03 544.27 507.21 545.28 508.2 546.54 508.21 548.37 507.32 549.51 507.31 551.11 506.52 551.47 505.06 550.92 505.02 552.11 501.75 555.82 498.55 558.53 495.17 561.08 493.78 561.54 491.62 562.7 488.59 563.44 487.51 563.89 486.63 565.39 485.39 566.21 484.22 566.52 480.01 566.37 477.49 567.31 476.17 568.3 473.52 569.96 466.57 573.93 465.12 574.51 462.7 577.21 457.33 573.82 451.63 571.05 447.76 568.49 445.7 566.64 441.83 565.72 436.7 566.02 431.91 565.92 427.35 563.56 424.16 559.36 421.54 557.61 416.64 556.18 409.68 553.92 403.07 551.05 397.03 545.51 393.95 543.56 386.66 542.43 378.68 542.33 374.14 541.99 374.14 539.22 365.45 539.22 365.3 531.28 365.65 524.4 366.25 522 366.48 519.98 366.33 518.47 365.82 517.01 364.36 514.06 364.24 513.5 364.15 511.49 363.26 510.25 362.04 509.08 360.26 508.06 358.55 506.67 357.86 504.79 357.84 502.52 357.48 501.04 356.09 500.5 354.01 500.25 352.79 499.61 351.85 498.29 350.8 497.3 348.8 496.3 345.97 495.66 343.02 496.18 340.66 495.97 337.78 494.77 335.63 494.18 332.84 493.65 330.26 492.67 327.97 490.77 326.36 489.1 327.05 487.47 327.34 485.43 330.02 478.65 328.47 478.21 326.55 476.46 324.66 475.49 322.82 475.32 320.08 475.78 316.73 475.73 316.73 475.02 319.24 474.09 319.79 474.44 322.75 473.91 322.92 472.98 322.53 472.36 322.84 470.6 323.76 470.57 324.24 471.81 324.02 472.55 325.55 473.2 326.63 474.77 327.15 474.95 328.01 476.74 328.76 477.31 330.43 475.95 330.74 467.72 330.7 465.88 331.9 436.33 332.16 432.98 337.88 425.61 338.68 423.93 338.77 422.81 338.92 410.97 338.94 406.87 Z" id="34114"/>
<path d="M 678.04 324.03 712.27 323.72 722.72 323.67 725.99 323.74 727.23 323.57 753.93 323.19 777.31 322.61 795.01 322.24 795.09 327.38 795.13 341.23 795.39 371.28 796.23 389.72 796.79 397.99 797.12 410.27 797.85 436.03 799 468.61 798.87 469.03 798.9 480.43 798.86 496.75 798.68 507.1 798.52 520.62 798.57 539.22 798.53 546.54 798.72 557.04 798.76 573.64 798.8 578.76 798.76 598.19 798.85 609.83 798.82 618.55 798.77 657.4 798.72 667.56 798.71 680.45 798.8 681.53 798.78 686.29 785.36 686.3 761.88 686.53 745.72 686.74 727.23 687.07 698.67 687.74 698.46 680.45 698.35 666.87 689.29 666.72 689.23 654.44 679.85 654.35 679.76 646.38 670.64 646.33 670.59 629.59 661.06 629.67 661.22 621.44 656.61 621.3 634.4 621.57 634.25 609.83 634.29 605.96 634.18 604.76 625.08 604.84 625.29 596.41 615.97 596.25 615.84 587.75 606.97 587.74 606.72 579.58 594.39 579.55 580.52 579.42 576.03 579.62 563.34 579.71 556.8 579.54 545.55 579.7 543.56 579.84 532.68 579.92 532.39 576.98 531.65 573.96 530.83 572.07 530.85 570.85 529.37 569.95 528.42 569.69 526.68 568.47 523.26 567.08 522.53 566.49 517.47 563.22 517.29 562.69 515.64 561.07 514.64 559.33 514.51 557.98 516.03 557.05 517.51 557.28 518.55 556.86 520.64 555.51 520.55 554.55 519.18 553.19 517.25 552.58 511.84 552.52 511.89 548.55 511.59 547.67 512.88 547.48 512.88 546.59 511.83 546.35 511.37 544.6 511.38 542.44 511.81 541.39 510.96 541.31 511.15 540.32 512.73 536.22 514.33 531.68 520.03 521.01 521.2 519.2 524.47 513.98 524.8 512.87 525.34 505.04 525.28 502.67 524.81 498.61 525.18 496.96 530.44 477.32 530.7 475.9 532.57 446.81 532.51 444.53 532 441.87 532.49 438.91 532.5 434.65 532.39 420.45 532.37 413.86 532.18 375.53 532.06 368.1 531.68 352.72 533.01 339.95 534.19 327.83 534.16 326.27 540.37 326.21 556.1 325.95 556.08 326.05 565.8 325.88 575.4 325.86 585.99 325.71 602.92 325.27 612.6 325.11 620.23 325.21 630.13 325.08 634.19 324.98 656.61 324.59 666.78 324.18 678.04 324.03 Z" id="34141"/>
<path d="M 339.16 385.61 338.94 406.87 330.57 407.22 317.05 407.12 305.06 407.12 303.97 407.6 305.8 409.6 300.72 415 299.72 417.52 296.77 419.75 296.27 421.1 293.92 423.63 291.35 424.11 289.35 424.74 288.05 425.67 287.35 425.53 286.5 426.64 285.34 427.22 284.85 425.9 283.52 424.15 282.35 417.84 282.72 416.31 283.09 413.56 282.56 412.34 282.9 411.27 283.02 405.62 282.85 405.28 283.59 401.06 284.32 399.78 285.05 399.83 284.86 392.46 286.26 392.23 286.25 391.77 284.87 390.75 291.73 390.59 291.74 391.38 294.07 391.35 294.07 390.56 303.7 390.47 303.7 391.6 304.91 391.57 304.91 390.47 314.48 390.41 314.52 392.7 315.58 392.04 317.62 392.12 317.88 390.91 317.61 390.39 324.86 390.29 327.1 389.64 328.54 388.43 331.65 383.57 332.83 382.36 334.11 381.7 336 381.35 335.98 382.97 336.76 383.95 336.73 385.43 339.16 385.61 Z" id="34112"/>
<path d="M 338.94 406.87 338.92 410.97 338.77 422.81 338.68 423.93 337.88 425.61 332.16 432.98 331.9 436.33 330.7 465.88 330.74 467.72 330.43 475.95 328.76 477.31 328.01 476.74 327.15 474.95 326.63 474.77 325.55 473.2 324.02 472.55 324.24 471.81 323.76 470.57 322.84 470.6 322.53 472.36 322.92 472.98 322.75 473.91 319.79 474.44 319.24 474.09 316.73 475.02 316.73 475.73 320.08 475.78 322.82 475.32 324.66 475.49 326.55 476.46 328.47 478.21 330.02 478.65 327.34 485.43 327.05 487.47 326.36 489.1 322.98 486.2 320.34 484.41 316.37 483.05 314.22 482.77 311.93 482.9 308.26 484.1 307.19 484.61 304.08 485.12 303.52 485.48 303.54 472.65 302.78 469.4 301.9 469.4 301.48 466.88 300.47 465.18 299.52 464.38 298.66 462.22 298.69 460.88 296.58 458.85 296.14 456.71 300.99 456.69 302.19 458.11 302.72 457.77 302.09 456.69 303.99 456.78 304.02 457.82 305.07 458.41 304.8 456.69 305.83 456.69 306.54 459.64 307.87 459.3 310.71 455.41 311.21 454.14 309.76 453.16 309.37 452.22 307.82 451.29 308.12 450.11 308.87 449.53 308.94 448.74 310.05 447.11 310.25 445.83 309.88 445.07 308.97 445.53 307.06 445.74 306.36 445.12 305.61 445.49 304.78 444.64 303.24 444.96 302.63 444.36 304.53 442.5 303.52 442.53 303.54 443.26 302.2 442.85 301.7 443.79 300.33 444.11 299.78 443.58 299.7 442.51 300.49 441.65 301.23 441.56 301.09 440.37 300.21 440.15 299.83 438.67 301.49 438.75 302.32 437.97 302.2 437.24 302.98 435.62 302.65 434.85 302.78 433.38 301.99 433.22 301.14 432.49 301.16 431.48 299.68 432.65 301.05 433.54 301.28 434.55 302.33 434.66 301.89 435.81 302.17 436.5 301.62 438.05 299.97 438.05 298.67 438.8 297.99 438.63 297.99 440.34 298.56 440.63 299.42 441.96 299.24 442.92 296.8 443.2 297.08 441.92 295.72 441.93 295.12 440.49 294.45 439.81 295.59 438.36 294.62 436.77 292.67 434.45 292.42 436.09 294.41 438.13 292.15 439.78 292.04 441.22 292.66 442.05 290.82 442.03 290.32 440.89 289.49 441.53 290.57 441.95 290.23 442.98 288.87 443.38 287.8 441.42 287.44 439.88 286.91 439.1 287.21 437.25 289.07 436.14 288.98 435.53 290.24 434.84 288.64 434.23 287.88 433.55 287.76 431.47 288.4 430.74 287.1 429.6 287.06 428.85 286.2 428.48 285.91 427.43 287.39 426.41 287.35 425.53 288.05 425.67 289.35 424.74 291.35 424.11 293.92 423.63 296.27 421.1 296.77 419.75 299.72 417.52 300.72 415 305.8 409.6 303.97 407.6 305.06 407.12 317.05 407.12 330.57 407.22 338.94 406.87 Z" id="34113"/>
<path d="M 307.62 314.65 307.5 296.37 307.27 294.25 305.58 289.79 310.63 289.75 310.24 288.87 310.18 286.91 310.56 286.07 311.28 285.79 313.47 285.91 317.83 285.72 318.09 287.93 317.81 288.46 315.93 289.71 337.03 289.54 337.23 298.16 337.31 305.54 337.55 310.31 337.63 314.52 337.84 319 339.35 318.57 345.65 318.61 347.02 318.43 347.11 320.24 343.08 320.43 342.41 320.94 337.96 321.21 338.46 331.83 338.54 337.26 338.66 339.51 338.78 348.85 324.41 349.03 323.02 349.13 311.36 349.27 311.01 331.4 310.75 329.45 310.29 327.95 307.96 321.52 307.66 319.29 307.62 314.65 Z" id="34119"/>
<path d="M 386.09 119.69 386.1 115.64 387.71 115.62 387.71 113.67 386.1 113.5 386.03 111.48 385.22 111.49 385.15 109.46 385.96 109.45 385.88 107.43 388.31 107.39 388.23 105.2 392.73 105.15 392.79 109.39 393.59 109.38 393.62 111.41 392.82 111.41 392.84 113.44 392.03 113.44 392.08 115.58 392.89 115.58 392.95 118.25 392.22 118.85 392.97 119.63 393.01 121.66 399.49 121.64 401.9 121.49 404.33 121.53 407.56 121.39 407.44 115.54 406.63 115.54 406.57 113.52 407.48 113.52 407.4 105.95 407.5 104.97 407.24 82.44 407.43 81.97 409.53 81.94 409.56 85.01 411.17 85 412 84.64 412.16 91.04 413.61 93.6 418.94 98.72 425.85 105.3 425.9 105.73 426.01 119.43 426.36 120 426.01 121.04 426.08 129.14 426.17 129.53 412.53 129.72 407.87 129.67 399.92 129.79 396.58 129.76 392.21 129.86 389.69 129.36 389.23 130.24 383.47 130.31 383.06 129.97 380.31 130 380.32 133.82 378.08 133.96 378.12 135.96 377.06 136.24 377.1 137.32 377.81 137.48 377.85 139.06 377.52 139.84 376.37 139.91 376.42 141.13 375.65 142.17 376.07 143.58 374.67 143.51 373.82 144.66 373.87 146.53 374.3 146.99 374.33 149.06 375.43 149.5 370.93 149.58 366.46 150.41 364.52 150.17 363.21 149.24 362.69 148.32 362.48 146.32 364.13 146.19 363.82 144.24 364.61 143.72 365.02 146.29 366.6 146.15 366.58 144.22 368.89 144.07 368.79 138.95 368.26 139.79 366.34 139.63 366.58 138.89 365.23 139 364.93 140.17 364.21 139.92 364.31 138.84 362.28 138.88 362.15 138.46 360.15 138.5 360.12 136.44 359.36 135.8 357.52 135.63 357.11 133.29 355.06 133.45 352.93 133.95 352.81 122.61 352.65 122.45 348.71 122.48 348.69 122.13 351.71 122.12 352.21 121.66 353.21 121.9 358.05 121.72 358.18 121.04 359.45 121.08 359.47 121.7 361.73 121.37 361.91 120.68 364.5 122.21 371.28 122.21 371.28 121.87 382.85 121.75 382.86 119.73 384.47 119.7 384.47 121.09 385.28 121.08 385.28 119.7 386.09 119.69 Z M 386.09 119.69 386.09 121.07 387.52 120.79 388.51 119.66 386.09 119.69 Z M 371.14 138.87 369.55 138.97 369.57 142.11 371.19 141.99 371.14 138.87 Z" fill-rule="evenodd" id="33936"/>
<path d="M 268.74 122.61 265.59 122.86 263.94 123.65 259.43 127.48 256.58 130.07 255.36 130.82 253.34 131.28 243.8 131.43 243.76 127.36 243.65 119.03 243.74 117.01 243.6 114.5 243.11 113.54 241.65 111.97 241.07 110.88 240.97 106.63 241.1 105.16 241.02 102.07 240.6 101.53 238.87 102.46 237.47 102.89 235.31 99.87 249.61 90.54 253.06 85.07 256.34 86.88 257.53 88.01 258.69 88.05 259.46 88.49 259.46 90.06 259.01 90.7 258.64 94.19 259.08 94.25 259.28 102.3 259.09 102.96 259.74 103.67 261.18 106.53 263.66 106.9 268.69 108.52 268.64 115.11 268.74 122.61 Z" id="33916"/>
<path d="M 253.06 85.07 257.04 78.86 259.74 78.7 266.68 76.5 268.93 76.04 270.86 74.39 271.89 74.15 273.99 74.53 274.54 75.21 276.97 75.21 278.69 74.22 281.36 73.83 282.85 73.81 288.35 71.57 289.47 70.7 291.72 68.12 293.22 65.39 295.32 64.06 297.31 63.61 297.94 63.54 303.44 63.89 305.96 63.57 309.7 62.31 311.38 61.34 317.4 60.3 321.57 59.69 325.79 58.84 331.09 60.04 331.15 61.22 329.2 61.25 329.21 62.8 324.62 62.86 324.69 66.86 333.93 64.99 336.03 64.78 342.96 64.77 343.04 72.01 326.82 72.28 317.49 72.4 316.46 74.44 317.8 74.61 319.13 74.25 320.47 75.41 320.74 77.3 315.03 77.24 313.85 79.57 316.82 79.59 317.15 80.08 322.03 80.25 324.97 81.47 334.13 81.35 334.3 88.91 334.64 97.05 339.38 97.01 339.32 101.87 339.01 102.46 339.28 103.48 339.18 106.31 336.16 105.83 336.19 109.97 335.9 110.04 330.7 106.34 330.05 106 328.04 105.77 327.97 104.45 325.51 101.91 325.52 102.7 327.48 104.8 327.21 105.83 324 105.9 321.87 105.81 321.52 106.97 320.6 107.79 319.53 108.03 317.05 108.06 315.79 109.1 315.17 109.26 304.4 109.25 302.83 109.44 301.13 110.01 300.3 110.83 299.51 113.49 298.86 114.26 297.9 114.41 289.85 114.55 287.9 114.38 289.22 115.78 293.31 119.39 291.2 121.33 289.7 122.24 287.59 122.61 282.31 122.47 276.67 122.48 273.46 122.66 268.83 122.72 268.74 122.61 268.64 115.11 268.69 108.52 263.66 106.9 261.18 106.53 259.74 103.67 259.09 102.96 259.28 102.3 259.08 94.25 258.64 94.19 259.01 90.7 259.46 90.06 259.46 88.49 258.69 88.05 257.53 88.01 256.34 86.88 253.06 85.07 Z" id="33905"/>
<path d="M 223.89 131.83 226.58 131.66 234.57 131.61 237.21 131.48 242.05 131.39 242.01 129.05 243.72 129.02 243.76 127.36 243.8 131.43 243.96 144.19 243.95 160.21 242.19 160.33 239.12 160.2 234.55 160.58 234.33 162.55 234.77 163.63 233.69 163.65 233.68 166.8 234.82 166.9 234.84 168.12 232.89 168.18 231.62 168.51 231.55 170.18 232.08 171.66 231.49 173.12 230.41 174.3 229.25 174.59 223.79 174.6 225.34 173.11 226.05 171.01 225.92 164.34 226.14 160.81 226.85 158.6 227.11 153.47 227.71 151.15 227.6 143.89 232.59 143.81 232.46 141.18 234.5 141.23 234.51 139.66 231.09 140.11 230.64 141.6 230.05 141.33 230.26 140.08 228.23 138.56 227.97 137.7 227.97 133.82 227.65 131.74 223.89 131.83 Z" id="33907"/>
<path d="M 334.13 81.35 349.77 81.2 352.57 81.14 352.51 88.36 352.61 97.41 352.76 105.53 352.44 106.3 352.46 107.92 352.96 107.91 353 113.9 352.91 115.86 354.56 117.75 357.2 119 361.91 120.68 361.73 121.37 359.47 121.7 359.45 121.08 358.18 121.04 358.05 121.72 353.21 121.9 352.21 121.66 351.71 122.12 348.69 122.13 348.71 122.48 343.6 122.49 343.35 122.35 334.49 122.28 325.4 122.36 323.51 122.2 312.81 122.18 307.52 122.26 307.57 124.25 306.8 124.98 305.16 123.56 304.44 122.57 304.19 121.04 302.49 121 301.71 120.61 299.1 118.34 298.42 118.9 298.46 123.79 293.31 119.39 289.22 115.78 287.9 114.38 289.85 114.55 297.9 114.41 298.86 114.26 299.51 113.49 300.3 110.83 301.13 110.01 302.83 109.44 304.4 109.25 315.17 109.26 315.79 109.1 317.05 108.06 319.53 108.03 320.6 107.79 321.52 106.97 321.87 105.81 324 105.9 327.21 105.83 327.48 104.8 325.52 102.7 325.51 101.91 327.97 104.45 328.04 105.77 330.05 106 330.7 106.34 335.9 110.04 336.19 109.97 336.16 105.83 339.18 106.31 339.28 103.48 339.01 102.46 339.32 101.87 339.38 97.01 334.64 97.05 334.3 88.91 334.13 81.35 Z" id="33971"/>
<path d="M 256.21 306.47 256.04 306.25 257.19 306.36 259.2 305.43 259.89 306.08 260 307.37 261.61 311 261.59 314.97 274.25 314.94 274.29 316.98 275.23 317.12 277.31 316.78 279.87 316.75 279.73 315.63 280.89 315 282.33 327.15 282.33 328.08 281.84 331.31 281.18 336.9 279.53 349.43 270.3 349.55 265.54 349.67 264.87 344.9 262.94 344.88 262.62 338.24 262.19 334.53 260.68 325.14 258.66 316.04 257.23 310.22 256.21 306.47 Z" id="34108"/>
<path d="M 287.35 425.53 287.39 426.41 285.91 427.43 286.2 428.48 287.06 428.85 287.1 429.6 288.4 430.74 287.76 431.47 287.88 433.55 288.64 434.23 290.24 434.84 288.98 435.53 289.07 436.14 287.21 437.25 286.91 439.1 287.44 439.88 287.8 441.42 288.87 443.38 290.23 442.98 290.57 441.95 289.49 441.53 290.32 440.89 290.82 442.03 292.66 442.05 292.04 441.22 292.15 439.78 294.41 438.13 292.42 436.09 292.67 434.45 294.62 436.77 295.59 438.36 294.45 439.81 295.12 440.49 295.72 441.93 297.08 441.92 296.8 443.2 299.24 442.92 299.42 441.96 298.56 440.63 297.99 440.34 297.99 438.63 298.67 438.8 299.97 438.05 301.62 438.05 302.17 436.5 301.89 435.81 302.33 434.66 301.28 434.55 301.05 433.54 299.68 432.65 301.16 431.48 301.14 432.49 301.99 433.22 302.78 433.38 302.65 434.85 302.98 435.62 302.2 437.24 302.32 437.97 301.49 438.75 299.83 438.67 300.21 440.15 301.09 440.37 301.23 441.56 300.49 441.65 299.7 442.51 299.78 443.58 300.33 444.11 301.7 443.79 302.2 442.85 303.54 443.26 303.52 442.53 304.53 442.5 302.63 444.36 303.24 444.96 304.78 444.64 305.61 445.49 306.36 445.12 307.06 445.74 308.97 445.53 309.88 445.07 310.25 445.83 310.05 447.11 308.94 448.74 308.87 449.53 308.12 450.11 307.82 451.29 309.37 452.22 309.76 453.16 311.21 454.14 310.71 455.41 307.87 459.3 306.54 459.64 305.83 456.69 304.8 456.69 305.07 458.41 304.02 457.82 303.99 456.78 302.09 456.69 302.72 457.77 302.19 458.11 300.99 456.69 296.14 456.71 296.58 458.85 298.69 460.88 298.66 462.22 299.52 464.38 300.47 465.18 301.48 466.88 301.9 469.4 302.78 469.4 303.54 472.65 303.52 485.48 301.03 486.57 301.14 478.67 300.91 476.01 300.45 474.88 298.97 473.34 295.27 468.6 291.89 460.41 290.29 455.7 288.01 450.77 283.78 443.69 280.47 437.02 275.99 426.1 276.32 424.24 275.18 420.97 273.81 418.68 273.24 416.69 275.45 416.35 275.95 415.73 276.12 414.37 277.03 413.98 282.56 412.34 283.09 413.56 282.72 416.31 282.35 417.84 283.52 424.15 284.85 425.9 285.34 427.22 286.5 426.64 287.35 425.53 Z" id="34101"/>
<path d="M 176.79 100.32 176.78 100.45 176.8 113.62 178.79 113.64 178.58 114.73 176.79 114.93 176.77 122.02 177.31 122.02 177.3 125.53 176.76 125.53 173.33 125.55 173.18 125.91 169.04 125.86 152.53 125.95 150.27 125.81 144.35 125.84 142.96 125.4 141.87 124.18 141.49 123.02 140.27 121.49 139.7 121.5 139.71 125.59 136.23 125.05 136.01 125.77 132.28 125.73 133.34 127.09 134.16 128.8 134.38 131.56 133.77 136.71 132.91 140.49 132.07 142.57 130.61 144.48 128.37 145.62 127.18 146.48 125.64 148.53 125.43 149.13 125.81 150.47 123.32 150.51 122.89 148.97 122.91 147.35 123.71 144.43 125.49 139.36 127.17 136.33 127.77 134.83 128.76 131.62 129.01 128.8 128.83 126.43 127.86 123.42 126.77 121.6 124.87 118.88 124.01 117.98 125.67 116.69 126.49 115.73 128.99 115.73 130.29 116.37 130.83 115.37 129.82 114.15 129.68 112.91 128.86 111.25 126.97 108.77 129.7 107.51 128 106.33 128.71 105.42 130.59 104.9 130.16 104.47 130.09 101.91 129.58 101.62 129.62 92.13 129.81 92.08 129.73 101.47 130.53 100.15 134.79 100.19 139.65 100.36 154.67 100.38 154.67 101.25 155.81 100.89 157.5 101.12 158.74 101.61 158.75 100.65 161.46 100.66 161.45 101.14 163.17 101.14 163.17 100.66 167.62 100.67 168.43 101.08 169.74 103.46 173.12 101.93 176.7 100.49 176.79 100.32 Z" id="33991"/>
<path d="M 123.32 150.51 125.81 150.47 125.43 149.13 125.64 148.53 127.18 146.48 128.37 145.62 130.61 144.48 132.07 142.57 132.91 140.49 133.77 136.71 134.38 131.56 134.16 128.8 133.34 127.09 132.28 125.73 136.01 125.77 136.23 125.05 139.71 125.59 139.7 121.5 140.27 121.49 141.49 123.02 141.87 124.18 142.96 125.4 144.35 125.84 150.27 125.81 152.53 125.95 169.04 125.86 173.18 125.91 173.33 125.55 176.76 125.53 176.76 126.01 176.76 128.58 177.3 128.58 177.03 130.24 177.07 136.71 176.83 136.71 176.83 150.56 176.89 156.24 176.28 158.32 176.17 161.27 176.78 162.45 177.3 168.41 162.29 169.7 158.85 170.51 155.89 171.49 154.86 172.2 152.12 175.86 151.47 177.72 151.68 178.54 153.25 181.18 154.76 182.95 155.15 183.94 155.31 186.15 153.04 188.82 148.85 194.32 148.19 195.31 146.12 197.51 145.39 196.8 143.42 195.5 137.33 190.05 135.75 188.16 133.73 186.15 130.39 180.95 129.07 178.14 128.22 175.18 125.66 164.11 125.25 158.28 124.53 153.91 123.32 150.51 Z" id="33914"/>
<path d="M 205.14 100.02 205.45 100.08 205.23 114.12 208.1 114.11 208.97 114.32 211.34 114.12 217.9 114.29 217.6 114.98 216.03 123.13 216.37 128.05 213.33 125.94 211.32 125.36 195.43 125.68 194.78 125.81 189.77 125.79 186.81 126.72 186.74 126.24 185.08 126.24 184.77 125.92 182.92 126.01 181.95 126.64 181.1 125.95 176.76 126.01 176.76 125.53 177.3 125.53 177.31 122.02 176.77 122.02 176.79 114.93 178.58 114.73 178.79 113.64 176.8 113.62 176.78 100.45 178.06 99.87 178.33 100.53 180.86 100.54 181.28 100.24 184.75 100.26 185.57 100.6 186.59 100.31 194.88 100.31 195.71 100.53 196.75 100.23 205.14 100.02 Z" id="33990"/>
<path d="M 265.74 370.94 268.62 370.09 269.59 370.82 271.82 371.41 272.99 371.14 274.54 370.31 279.96 370.37 280.15 374.09 282.74 373.92 282.58 376.37 284.21 377.59 284.23 378.44 284 380.04 283.31 381.45 283.52 382.34 282.95 383.48 283.37 384.31 282.74 386.46 282.87 388.89 284.16 388.88 285.31 389.85 284.87 390.75 286.25 391.77 286.26 392.23 284.86 392.46 285.05 399.83 284.32 399.78 283.59 401.06 282.85 405.28 283.02 405.62 282.9 411.27 282.56 412.34 277.03 413.98 276.12 414.37 275.95 415.73 275.45 416.35 273.24 416.69 272.08 408.53 271.26 403.29 270.34 395.84 269.3 389.76 268.12 381.52 267.03 374.43 265.74 370.94 Z" id="34102"/>
<path d="M 305.58 289.79 307.27 294.25 307.5 296.37 307.62 314.65 295.02 314.81 287.29 314.97 280.89 315 279.73 315.63 279.87 316.75 277.31 316.78 275.23 317.12 274.29 316.98 274.25 314.94 261.59 314.97 261.61 311 260 307.37 259.89 306.08 259.2 305.43 257.19 306.36 256.04 306.25 257.33 306.08 259.48 305.08 259.64 304.09 260.81 303.1 260.75 302 261.37 301.54 261.67 300.51 260.48 298.92 259.8 298.95 258.53 297.28 258.86 296.85 258.35 295.55 258.49 294.2 258.13 293.32 257.49 293.11 256.83 293.87 255.79 293.74 254.6 292.88 254.5 291.26 256 290.44 256.78 290.61 258.51 289.22 260.27 288.67 260.23 287.67 261.13 287.04 264.4 287.18 264.42 290.16 272.36 290.13 281.31 290.14 281.88 290.06 283.03 287.6 285.42 289.2 287.1 288.54 289.38 289.21 291.55 289.27 293.44 288.56 293.45 287.49 292.05 286.39 292.06 285.58 293.16 285.59 293.93 283.82 294.81 283.81 295.95 284.46 296.21 285.5 296.33 289.94 305.58 289.79 Z" id="34110"/>
<path d="M 205.14 100.02 196.75 100.23 195.71 100.53 194.88 100.31 186.59 100.31 185.57 100.6 184.75 100.26 181.28 100.24 180.86 100.54 178.33 100.53 178.06 99.87 176.78 100.45 176.79 100.32 176.61 98.19 176.6 94.27 176.77 88.54 176.13 87.81 176.19 83.96 180.23 83.96 180.24 83.45 176.85 83.45 176.84 81.09 176.19 81.1 176.19 79.7 176.84 79.7 176.85 77.25 177.41 77.24 177.42 75.48 176.85 75.19 177.11 63.68 177.35 63.16 186.39 59.03 186.49 51.1 186.61 50.13 190.35 50.16 190.88 50.65 193.33 50.78 193.56 50.31 195.99 50.47 200.57 50.52 204.62 50.41 204.69 51.24 204.72 58.72 214.69 58.66 214.4 59.1 214.3 63.82 216.14 63.36 216.31 64.08 214.3 64.58 211.88 63.89 211.62 65.27 211.18 65.49 209.45 64.25 208.33 64.41 206.98 64.13 204.58 64.89 204.55 69.01 203.47 69.01 203.41 71.05 204.56 71.08 204.57 75.17 207.41 75.15 207.81 76.35 209.42 77.96 210.82 80.94 211.57 81.45 212.15 83.32 212.72 83.65 206.07 86.82 206.24 88.66 207.43 88.71 207.52 89.7 208.66 89.7 208.76 90.76 206.49 90.75 206.61 91.8 206.58 95.92 205.47 95.92 205.45 100.03 205.14 100.02 Z" id="33909"/>
<path d="M 371.14 138.87 371.19 141.99 369.57 142.11 369.55 138.97 371.14 138.87 Z M 407.87 129.67 408.11 141.08 408.15 152.65 408.37 165.44 408.37 170.06 408.59 175.92 372.11 166.65 370.33 165.81 369 164.27 367.37 161.12 366.88 160.56 362.03 156.89 361.08 156.32 353.24 152.91 353.31 152.68 353.22 146.15 353.53 144.95 353.11 144.4 353.01 142.87 353.03 138.76 352.93 133.95 355.06 133.45 357.11 133.29 357.52 135.63 359.36 135.8 360.12 136.44 360.15 138.5 362.15 138.46 362.28 138.88 364.31 138.84 364.21 139.92 364.93 140.17 365.23 139 366.58 138.89 366.34 139.63 368.26 139.79 368.79 138.95 368.89 144.07 366.58 144.22 366.6 146.15 365.02 146.29 364.61 143.72 363.82 144.24 364.13 146.19 362.48 146.32 362.69 148.32 363.21 149.24 364.52 150.17 366.46 150.41 370.93 149.58 375.43 149.5 374.33 149.06 374.3 146.99 373.87 146.53 373.82 144.66 374.67 143.51 376.07 143.58 375.65 142.17 376.42 141.13 376.37 139.91 377.52 139.84 377.85 139.06 377.81 137.48 377.1 137.32 377.06 136.24 378.12 135.96 378.08 133.96 380.32 133.82 380.31 130 383.06 129.97 383.47 130.31 389.23 130.24 389.69 129.36 392.21 129.86 396.58 129.76 399.92 129.79 407.87 129.67 Z" fill-rule="evenodd" id="33974"/>
<path d="M 69.86 173.39 64.4 185.26 62.3 189.73 59.13 196.09 58.43 196.18 57.73 198.66 57.14 198.43 55.87 196.77 53.92 191.69 52.99 186.15 52.91 185.02 51.38 178.42 50.54 176.86 49.77 173.49 49.86 171.98 49.33 169.98 48.25 164.93 47.74 161.37 46.04 159.47 44.77 157.42 45.03 155.85 44.52 154.7 44.18 152.65 44.01 149.84 43.25 147.63 41.55 145.45 39.18 141.88 37.57 139.91 36.04 139.23 34.09 137.72 33.58 136.12 32.65 134.38 32.99 132.41 32.82 128.85 33.92 126.65 33.58 125.81 33.41 121.99 31.46 115.47 29.6 110.99 25.19 107.13 23.58 104.7 22.05 100.68 20.02 97.42 19.93 96.29 18.23 93.1 16.37 92.65 13.65 91.51 10.01 87.95 9.33 86.13 11.35 85.29 10.36 84.04 9.24 84.27 6.61 83.82 6.27 82 7.03 81.24 10.19 81.24 11.42 78.67 10.72 78.34 10.3 77.43 10.72 74.93 11.91 72.73 13.86 72.35 14.16 70.69 15.55 70.11 18.23 68.11 19.83 67.33 22.59 67.23 23.75 67.41 25.48 68.54 26.72 70.93 26.72 71.65 28.1 74.22 29.1 75.76 36.63 74.92 51.22 74.92 51.29 76.59 52.22 80.24 52.02 81.01 49.4 86.9 48.62 89.67 48.04 95.26 48.28 100.02 48.52 110.73 48.9 113.55 49.45 115.54 50.73 123.18 55.21 137.38 55.55 138.23 61.77 152.56 66.75 166.74 69.86 173.39 Z M 35.87 131.37 36.43 130.54 38.84 130.7 38.17 129.33 38.35 128 39.74 128.2 38.24 126.39 37.02 126.35 35.97 127.89 36.59 128.25 36.08 129.17 36.67 130.02 35.83 130.58 35.87 131.37 Z" fill-rule="evenodd" id="33924"/>
<path d="M 69.86 173.39 66.75 166.74 61.77 152.56 55.55 138.23 55.21 137.38 84.93 135.99 85.37 133.23 87.14 130.11 88.91 127.86 88.97 126.4 87.67 125.2 87.48 124.46 87.9 123.62 87.47 122.59 87.45 121.51 88.39 121.86 88.95 121.21 87.62 119.76 88.05 118.37 86.43 117.63 86.26 116.41 86.88 115.06 87.5 115.17 86.83 117.81 87.8 117.37 88.52 118.62 87.87 119.57 88.68 120.8 89.72 120.6 89.67 121.46 88.66 122.6 89.47 123.4 89.45 124.62 93.95 124.21 94.01 122.17 94.84 122.15 95.86 123.14 96.13 124 98.25 123.94 98.25 122.09 101.34 122.03 102.93 121.72 103.6 124.99 104.13 129.7 105.18 130.92 106.09 133.56 106.89 133.95 107.7 134.89 107.98 136.15 111.14 139.1 114.15 143.92 114.22 145.7 114.59 147.23 115.77 147.84 116.27 148.61 116.94 150.6 123.32 150.51 124.53 153.91 125.25 158.28 125.66 164.11 128.22 175.18 129.07 178.14 130.39 180.95 133.73 186.15 135.75 188.16 137.33 190.05 143.42 195.5 145.39 196.8 146.12 197.51 145.22 198.5 144.38 199.93 141.16 199.36 137.21 198.91 132.75 198.62 130.12 198.75 126.58 198.69 124.21 198.8 121.73 199.45 119.91 199.69 115.22 199.92 112.25 200.23 108.94 200.28 106.89 199.96 103.76 199.17 100.06 197.68 97.71 196.49 94.51 194.55 91.65 192.35 85 187.52 83.2 186.15 74.68 179.98 73.09 178.53 71.69 176.85 69.86 173.39 Z" id="33956"/>
<path d="M 326.36 489.1 327.97 490.77 330.26 492.67 332.84 493.65 335.63 494.18 337.78 494.77 340.66 495.97 343.02 496.18 345.97 495.66 348.8 496.3 350.8 497.3 351.85 498.29 352.79 499.61 354.01 500.25 356.09 500.5 357.48 501.04 357.84 502.52 357.86 504.79 358.55 506.67 354.96 507.09 347.96 507.37 345.59 506.84 344.52 507.53 344.41 508.16 345.73 508.96 347.2 512.48 346.99 513.6 347.46 514.82 348.72 515.25 349.49 514.82 349.94 512.6 350.64 511 351.64 511.57 350.86 514 352.86 514.95 352.62 516.16 351.45 517.17 352.23 518.93 353.71 519.06 354.35 518.65 355.56 515.9 356.09 515.47 358.2 514.84 360.46 514.81 362.82 514.33 364.24 513.5 364.36 514.06 365.82 517.01 366.33 518.47 366.48 519.98 366.25 522 365.65 524.4 365.3 531.28 365.45 539.22 374.14 539.22 374.14 541.99 367.44 541.65 363.89 543.37 362.45 548.2 361.4 558.56 359.38 567.53 354.69 570.2 348.55 570.46 342.9 568.56 336.47 556.4 330.24 544.15 323.92 529.23 321.18 523.89 318.6 523.36 316.45 522.25 314.21 520.63 314.24 515.52 313.97 513.39 312.75 508.9 311.39 505.5 304.36 499.45 302.27 498.08 300.09 496.98 299.4 493.49 299.35 489.76 300 487.58 301.03 486.57 303.52 485.48 304.08 485.12 307.19 484.61 308.26 484.1 311.93 482.9 314.22 482.77 316.37 483.05 320.34 484.41 322.98 486.2 326.36 489.1 Z" id="34145"/>
<path d="M 307.62 314.65 307.66 319.29 307.96 321.52 310.29 327.95 310.75 329.45 311.01 331.4 311.36 349.27 305.8 349.32 304.2 349.24 291.5 349.25 279.53 349.43 281.18 336.9 281.84 331.31 282.33 328.08 282.33 327.15 280.89 315 287.29 314.97 295.02 314.81 307.62 314.65 Z" id="34109"/>
<path d="M 440.81 382.32 420.04 382.42 420.21 390.78 413.58 390.85 413.55 388.81 413.15 388.81 413.24 390.86 413.11 394.97 406.56 395.04 406.86 415.56 404.61 415.57 404.62 415.11 401.67 415.12 401.41 414.67 395.63 414.88 395.14 415.14 383.42 414.81 384.4 413.51 384.29 411.44 383.82 410.45 383.93 409.05 381.04 408.55 381.75 406.94 384.44 406.25 385.37 405.66 386.1 401.6 386.63 400.63 385.9 398.57 386.46 396.55 387.36 394.97 387.26 394.24 380.96 391.65 380.33 391.63 375.82 389.04 372.62 387.94 370.93 388.29 369.05 389.37 367.85 389.61 366.18 389.3 364.73 388.36 362.52 387.87 362.59 386.86 361.84 386.34 361.82 385.59 360.99 385.36 361.62 384.4 360.78 383.42 359.99 383.85 358.8 382.69 358.76 381.24 353.06 381.2 350.48 381.03 347.6 380.47 339.22 378.21 339.06 371.05 338.93 362.65 338.93 359.29 338.78 348.85 338.66 339.51 352.38 339.32 387.94 338.91 411.2 338.63 440.2 338.3 441.28 338.87 442.14 341.88 441.08 343.33 441.1 349.08 441.01 351.45 441.8 351.76 442.35 352.71 441.01 352.71 440.78 354.78 440.17 356.84 440.9 359.91 440.81 382.32 Z" id="34117"/>
<path d="M 256.04 306.25 256.21 306.47 255.41 305.86 255.23 303.63 253.55 297.55 251.72 292.28 249.51 286.59 248.06 282.18 248.69 282.18 246.27 276.8 244.6 273.26 243.67 271.01 242.65 269.1 240.82 266.36 239.17 264.14 238.8 261.99 239.66 261.7 239.53 259.92 240.55 260.97 240.62 262.02 242.39 264.19 242.44 265.36 243.8 266.32 243.95 268.01 244.52 268.81 246.01 269.69 247.5 270.23 249.65 269.84 250.63 269.33 249 256.76 248.96 255.69 247.71 255.44 245.32 253.99 244.74 251.19 245.04 248.92 246.01 246.89 246.75 246.36 246.33 245.19 250.37 246.9 250.31 245.99 251.76 244.67 251.17 243.49 252.58 243.34 252.72 242.36 254.7 242.44 254.74 244 259.03 243.98 258.49 243.02 257.18 243.01 257.15 240.13 258.43 240.14 258.19 238.66 257.13 237.47 259 237.47 263.47 240.74 263.7 242.19 265.73 241.84 266.74 243.99 269.12 243.99 269.15 245.57 270.62 252.54 270.79 269.79 272.19 270.55 273.39 270.53 273.06 272.65 270.91 272.72 271.44 277.11 272.06 283.92 272.36 290.13 264.42 290.16 264.4 287.18 261.13 287.04 260.23 287.67 260.27 288.67 258.51 289.22 256.78 290.61 256 290.44 254.5 291.26 254.6 292.88 255.79 293.74 256.83 293.87 257.49 293.11 258.13 293.32 258.49 294.2 258.35 295.55 258.86 296.85 258.53 297.28 259.8 298.95 260.48 298.92 261.67 300.51 261.37 301.54 260.75 302 260.81 303.1 259.64 304.09 259.48 305.08 257.33 306.08 256.04 306.25 Z" id="34134"/>
<path d="M 176.76 126.01 181.1 125.95 181.95 126.64 182.92 126.01 184.77 125.92 185.08 126.24 186.74 126.24 186.81 126.72 189.77 125.79 194.78 125.81 195.43 125.68 211.32 125.36 213.33 125.94 216.37 128.05 216.6 131.45 214.04 139.43 210.03 145.53 207.82 147.68 204.4 150.75 200.47 156.27 196.41 161.75 194.15 163.72 186.52 167.62 177.3 168.41 176.78 162.45 176.17 161.27 176.28 158.32 176.89 156.24 176.83 150.56 176.83 136.71 177.07 136.71 177.03 130.24 177.3 128.58 176.76 128.58 176.76 126.01 Z" id="33904"/>
<path d="M 210.62 47.87 211.69 48.77 210.59 49.17 209.93 48.51 210.62 47.87 Z M 214.69 58.66 204.72 58.72 204.69 51.24 204.62 50.41 200.57 50.52 195.99 50.47 193.56 50.31 196.03 50.25 195.85 46.27 196.03 42.17 202.94 42.15 202.12 40.65 204.76 40.66 208.38 47.32 208.54 47.39 214.69 58.66 Z M 214.69 58.66 215.05 59.15 216.13 62.4 216.81 64.94 217.81 66.55 221.53 71.03 223.59 71.04 223.6 72.67 223.16 73.03 224.06 74.48 227.25 81.44 229.04 81.41 229.05 83.48 228.02 83.55 228.2 85.54 229.08 85.53 229.09 86.51 228.59 87.26 228.79 88.64 228.26 88.93 228.63 90.1 229.85 91.8 231.22 93.25 231.8 92.91 232.1 95.17 235.31 99.87 229.04 101.83 220.16 110.24 217.72 112.11 217.9 114.29 211.34 114.12 208.97 114.32 208.1 114.11 205.23 114.12 205.45 100.08 205.14 100.02 205.45 100.03 205.47 95.92 206.58 95.92 206.61 91.8 206.49 90.75 208.76 90.76 208.66 89.7 207.52 89.7 207.43 88.71 206.24 88.66 206.07 86.82 212.72 83.65 212.15 83.32 211.57 81.45 210.82 80.94 209.42 77.96 207.81 76.35 207.41 75.15 204.57 75.17 204.56 71.08 203.41 71.05 203.47 69.01 204.55 69.01 204.58 64.89 206.98 64.13 208.33 64.41 209.45 64.25 211.18 65.49 211.62 65.27 211.88 63.89 214.3 64.58 216.31 64.08 216.14 63.36 214.3 63.82 214.4 59.1 214.69 58.66 Z" fill-rule="evenodd" id="33903"/>
<path d="M 275.58 129.9 273.46 122.66 276.67 122.48 282.31 122.47 287.59 122.61 289.7 122.24 291.2 121.33 293.31 119.39 298.46 123.79 309.29 133.21 310.37 134.06 312.36 135.16 323.91 140.17 353.24 152.91 361.08 156.32 362.03 156.89 366.88 160.56 367.37 161.12 369 164.27 370.33 165.81 372.11 166.65 408.59 175.92 408.63 178.82 409.01 201.46 409.05 205.51 409.24 213.74 409.13 213.86 390.82 214.11 361.5 214.32 349.73 214.39 349.67 206.57 350.64 205.99 350.69 204.18 347.34 200.23 345.02 199.15 344.82 198.14 344.81 192.64 344.62 190.63 342.51 190.63 342.54 192.91 344.67 192.88 344.74 194.99 343.66 195.01 343.68 196.39 341.13 196.09 340.05 196.93 337.73 196.13 338.27 197.52 338.1 201.37 335.82 201.7 335.85 203.5 333.25 203.52 333.16 199.67 330.71 199.71 330.23 200.41 332.19 202.26 330.48 202.27 331.11 206.66 329.42 207.87 328.93 207.83 328.92 210.29 329.51 212.85 310.09 213.87 307.78 214.84 307.2 213.83 304.79 214.8 300.24 214.81 290.63 214.95 291.05 213.41 291.01 211.22 291.63 211.21 296.08 209.62 297.36 206.76 297.29 205.3 299.32 205.26 299.31 202.58 294.99 202.65 287.67 202.6 286.06 203.56 285.33 203.68 283.35 203.1 283.39 205.52 285.05 207.63 284.13 208.03 284.89 209.45 286.18 210.7 288.64 212.23 289.62 213.58 289.69 214.95 286.8 214.95 284.39 215.26 283.17 211.7 278.8 196.09 278.46 193.9 278.42 190.41 278.06 157.08 278.24 154.41 279.54 146.51 279.62 144.1 279.32 142.68 275.58 129.9 Z" id="33913"/>
<path d="M 2.51 9.23 3.27 10.14 5.26 10.65 6.17 11.31 7.17 8.96 9.74 1.16 9.97 1 14.34 1.04 14.54 13.05 14.44 14.73 14.54 23.16 21.05 24.28 22.06 24.3 25.11 24.93 30.04 26.35 33.34 26.94 36.54 27.05 38.96 28.29 41.74 30.83 44.23 32.85 46.05 33.52 49.97 33.32 54.22 33.33 54.63 35.31 53.96 36.24 42.58 36.91 42.69 37.32 39.78 37.8 34.88 37.74 30.63 37.56 27.23 38.03 22.66 40.07 23.44 44.8 23.25 49.29 20.9 54.6 20.7 59.5 20.89 63.69 19.5 64.06 15.72 64.61 12.52 64.92 10.85 61.51 11.03 60.06 10.98 54.58 11.11 53.72 10.81 51.22 10.81 49.42 10.41 47.42 10.24 42.22 9.18 34.27 8.31 30.12 7.01 24.77 6.18 22.85 7.7 22.81 6.48 20.3 2.66 16.3 1 13.03 1 10.96 2.64 10.12 2.51 9.23 Z" id="33921"/>
<path d="M 503.78 579.96 502.9 578.92 502.55 577.86 502.86 576.81 502.51 575.93 500.27 575.17 500.5 574.56 501.97 574.85 503.04 573.19 502.41 572.62 502.76 569.96 503.92 568.58 505.11 568.92 505.34 569.61 506.41 570.9 506.92 570.58 506.86 563.26 517.47 563.22 522.53 566.49 523.26 567.08 526.68 568.47 528.42 569.69 529.37 569.95 530.85 570.85 530.83 572.07 531.65 573.96 532.39 576.98 532.68 579.92 529.11 579.97 515.38 579.94 503.78 579.96 Z" id="34138"/>
<path d="M 284.39 215.26 286.8 214.95 289.69 214.95 290.63 214.95 300.24 214.81 304.79 214.8 307.2 213.83 307.78 214.84 310.09 213.87 329.51 212.85 328.92 210.29 328.93 207.83 329.42 207.87 331.11 206.66 330.48 202.27 332.19 202.26 330.23 200.41 330.71 199.71 333.16 199.67 333.25 203.52 335.85 203.5 335.82 201.7 338.1 201.37 338.27 197.52 337.73 196.13 340.05 196.93 341.13 196.09 343.68 196.39 343.66 195.01 344.74 194.99 344.67 192.88 342.54 192.91 342.51 190.63 344.62 190.63 344.81 192.64 344.82 198.14 345.02 199.15 347.34 200.23 350.69 204.18 350.64 205.99 349.67 206.57 349.73 214.39 361.5 214.32 390.82 214.11 409.13 213.86 409.24 213.74 409.5 229.76 409.33 230.07 406.5 230.09 380.37 230.51 374.14 230.59 363.66 230.8 354.54 230.94 355.07 256.76 355.35 281.01 355.11 281.01 354.99 277.01 346.13 277.15 345.94 267.57 336.78 267.67 336.71 264.58 333 264.63 333.26 272.93 332.42 273.56 330.07 272.3 327.15 273.56 322.58 272.38 319.93 273.14 314.95 273.21 314.9 271.18 313.89 269.29 313.89 266.44 314.85 266.05 314.82 265.04 318.01 264.97 318.41 265.24 318.3 257.54 318.04 248.4 311.35 248.66 300.33 248.81 290.86 248.87 290.41 232.98 290.18 231.27 289.06 231.42 288.74 231.94 287.41 231.44 284.97 231.48 278.1 231.34 271.44 231.37 272.52 234.48 272.6 239.68 272.85 243.33 270.71 243.83 269.23 243.93 269.2 241.82 269.89 241.74 269.8 240.24 268.93 240.27 269.12 243.99 266.74 243.99 265.73 241.84 263.7 242.19 263.47 240.74 259 237.47 257.13 237.47 258.19 238.66 258.43 240.14 257.15 240.13 257.18 243.01 258.49 243.02 259.03 243.98 254.74 244 254.7 242.44 252.72 242.36 252.58 243.34 251.17 243.49 251.76 244.67 250.31 245.99 250.37 246.9 246.33 245.19 243.75 240.03 240.86 235.94 235.57 230.66 232.91 228.69 230.11 228.17 227.34 227.23 223.97 225.64 221.59 224.34 224.13 223.82 225.19 223.32 228.88 222.13 229.72 221.68 232.56 220.97 236.32 219.57 238.23 217.12 238.37 216.64 237.27 213.41 236.41 209 237.26 207.86 238.25 206.01 239.45 206.21 239.73 205.53 244.75 205.31 249.35 207.07 253.91 207.01 254.13 215.21 260.08 215.12 262.06 215.19 262.57 214.44 262.21 213.47 263.02 213.17 265.08 215.62 267.02 214.79 271.9 215.08 281.98 214.87 284.39 215.26 Z" id="33928"/>
<path d="M 355.35 281.01 355.44 289.41 337.03 289.54 315.93 289.71 317.81 288.46 318.09 287.93 317.83 285.72 313.47 285.91 311.28 285.79 310.56 286.07 310.18 286.91 310.24 288.87 310.63 289.75 305.58 289.79 296.33 289.94 296.21 285.5 295.95 284.46 294.81 283.81 293.93 283.82 293.16 285.59 292.06 285.58 292.05 286.39 293.45 287.49 293.44 288.56 291.55 289.27 289.38 289.21 287.1 288.54 285.42 289.2 283.03 287.6 281.88 290.06 281.31 290.14 272.36 290.13 272.06 283.92 271.44 277.11 270.91 272.72 273.06 272.65 273.39 270.53 272.19 270.55 270.79 269.79 270.62 252.54 269.15 245.57 269.12 243.99 268.93 240.27 269.8 240.24 269.89 241.74 269.2 241.82 269.23 243.93 270.71 243.83 272.85 243.33 272.6 239.68 272.52 234.48 271.44 231.37 278.1 231.34 284.97 231.48 287.41 231.44 288.74 231.94 289.06 231.42 290.18 231.27 290.41 232.98 290.86 248.87 300.33 248.81 311.35 248.66 318.04 248.4 318.3 257.54 318.41 265.24 318.01 264.97 314.82 265.04 314.85 266.05 313.89 266.44 313.89 269.29 314.9 271.18 314.95 273.21 319.93 273.14 322.58 272.38 327.15 273.56 330.07 272.3 332.42 273.56 333.26 272.93 333 264.63 336.71 264.58 336.78 267.67 345.94 267.57 346.13 277.15 354.99 277.01 355.11 281.01 355.35 281.01 Z" id="34135"/>
<path d="M 204.76 40.66 200.97 33.79 230.81 33.86 229.78 33.03 223.41 29.17 222.47 28.51 221.77 22.74 224.04 22.27 223.98 21.12 224.02 13.46 224.01 17.69 242.3 17.41 242.3 17.18 250.42 17.33 255.38 17.35 256.46 19.56 260.51 19.6 260.48 31.86 261.71 31.83 261.79 33.94 297.35 34.05 297.19 52.13 297.24 59.57 297.13 61.36 297.31 63.61 295.32 64.06 293.22 65.39 291.72 68.12 289.47 70.7 288.35 71.57 282.85 73.81 281.36 73.83 278.69 74.22 276.97 75.21 274.54 75.21 273.99 74.53 271.89 74.15 270.86 74.39 268.93 76.04 266.68 76.5 259.74 78.7 257.04 78.86 253.06 85.07 249.61 90.54 235.31 99.87 232.1 95.17 231.8 92.91 231.22 93.25 229.85 91.8 228.63 90.1 228.26 88.93 228.79 88.64 228.59 87.26 229.09 86.51 229.08 85.53 228.2 85.54 228.02 83.55 229.05 83.48 229.04 81.41 227.25 81.44 224.06 74.48 223.16 73.03 223.6 72.67 223.59 71.04 221.53 71.03 217.81 66.55 216.81 64.94 216.13 62.4 215.05 59.15 214.69 58.66 208.54 47.39 208.38 47.32 204.76 40.66 Z M 210.62 47.87 209.93 48.51 210.59 49.17 211.69 48.77 210.62 47.87 Z" fill-rule="evenodd" id="33917"/>
<path d="M 265.74 370.94 265.38 368.06 265.11 362.05 264.16 350.58 263.62 348.8 262.94 344.88 264.87 344.9 265.54 349.67 270.3 349.55 279.53 349.43 279.69 356.42 280.76 356.45 280.78 357.69 279.72 358.18 279.92 365.91 280.09 368.64 279.96 370.37 274.54 370.31 272.99 371.14 271.82 371.41 269.59 370.82 268.62 370.09 265.74 370.94 Z" id="34103"/>
<path d="M 284.87 390.75 285.31 389.85 284.16 388.88 282.87 388.89 282.74 386.46 283.37 384.31 282.95 383.48 283.52 382.34 283.31 381.45 284 380.04 284.23 378.44 284.84 377.89 284.81 375.42 285.08 374.98 287.44 374.02 293.92 373.94 303.41 373.69 314.04 373.57 315.32 374.66 316.79 375.53 319.19 376.34 321.87 376.57 328.14 376.34 329.99 376.35 332.56 376.62 336.82 377.71 338.4 378.32 339.23 378.37 339.28 382.03 339.16 385.61 336.73 385.43 336.76 383.95 335.98 382.97 336 381.35 334.11 381.7 332.83 382.36 331.65 383.57 328.54 388.43 327.1 389.64 324.86 390.29 317.61 390.39 317.88 390.91 317.62 392.12 315.58 392.04 314.52 392.7 314.48 390.41 304.91 390.47 304.91 391.57 303.7 391.6 303.7 390.47 294.07 390.56 294.07 391.35 291.74 391.38 291.73 390.59 284.87 390.75 Z" id="34104"/>
<path d="M 311.36 349.27 323.02 349.13 324.41 349.03 338.78 348.85 338.93 359.29 338.93 362.65 339.06 371.05 339.22 378.21 339.23 378.37 338.4 378.32 336.82 377.71 332.56 376.62 329.99 376.35 328.14 376.34 321.87 376.57 319.19 376.34 316.79 375.53 315.32 374.66 314.04 373.57 312.1 369.67 311.71 367.44 311.36 349.27 Z" id="34116"/>
<path d="M 513.83 480.11 515.9 480.09 516.89 480.31 518.11 481.81 523.26 496.17 525.18 496.96 524.81 498.61 525.28 502.67 525.34 505.04 524.8 512.87 524.47 513.98 521.2 519.2 513.04 515.77 507.51 514.87 502.37 514.57 491.78 512 513.83 480.11 Z" id="34137"/>
<path d="M 273.46 122.66 275.58 129.9 275.54 131.07 272.84 134.73 272.11 136.71 270.79 137.39 268.52 137.82 267.52 139.44 266.51 140.01 265.2 141.94 265.85 142.36 265.47 143.44 264.68 144.37 262.83 147.47 262.31 147.48 259.51 146.46 256.7 153.37 255.79 154.76 253.77 156.71 253.18 157.85 252.93 159.93 245.82 160.04 243.95 160.21 243.96 144.19 243.8 131.43 253.34 131.28 255.36 130.82 256.58 130.07 259.43 127.48 263.94 123.65 265.59 122.86 268.74 122.61 268.83 122.72 273.46 122.66 Z" id="33966"/>
<path d="M 57.73 198.66 58.43 196.18 59.13 196.09 62.3 189.73 64.4 185.26 69.86 173.39 71.69 176.85 73.09 178.53 74.68 179.98 83.2 186.15 85 187.52 91.65 192.35 94.51 194.55 97.71 196.49 100.06 197.68 103.76 199.17 106.89 199.96 108.94 200.28 112.25 200.23 115.22 199.92 119.91 199.69 121.73 199.45 124.21 198.8 126.58 198.69 130.12 198.75 132.75 198.62 137.21 198.91 141.16 199.36 144.38 199.93 147.14 200.91 148.96 201 152.17 211.69 153.03 211.26 154.56 211.24 155.6 211.51 156.63 212.72 156.56 213.4 154.93 215.04 153.48 216.08 149.95 217.79 144.65 220.67 142.89 221.84 138.89 223.36 136.86 224.89 133.46 226.64 130.32 228.46 125.61 230.22 122.27 231.27 120.44 231.57 116.2 231.47 110.48 230.87 107.94 230.24 104.19 228.98 102.43 228.19 100.97 227.8 91.67 224.36 89.84 223.8 86.7 222.25 85.51 221.46 83.4 218.83 80.52 215.87 76.11 213.06 72.56 210.64 65.19 207.15 62.48 205.41 60.61 203.97 58.67 200.48 58.24 198.97 57.73 198.66 Z" id="33957"/>
<path d="M 353.24 152.91 323.91 140.17 324.5 139.07 324.8 136.98 324.47 132.43 323.51 122.2 325.4 122.36 334.49 122.28 343.35 122.35 343.6 122.49 348.71 122.48 352.65 122.45 352.81 122.61 352.93 133.95 353.03 138.76 353.01 142.87 353.11 144.4 353.53 144.95 353.22 146.15 353.31 152.68 353.24 152.91 Z" id="33976"/>
<path d="M 249.87 190.63 249.05 190.62 244.8 186.81 243.54 185.17 235.63 173.57 235.22 172.73 234.98 170.61 233.95 170.55 232.74 170.93 232.08 171.66 231.55 170.18 231.62 168.51 232.89 168.18 234.84 168.12 234.82 166.9 233.68 166.8 233.69 163.65 234.77 163.63 234.33 162.55 234.55 160.58 239.12 160.2 242.19 160.33 243.95 160.21 245.82 160.04 252.93 159.93 253.18 157.85 253.77 156.71 255.79 154.76 256.7 153.37 259.51 146.46 262.31 147.48 262.83 147.47 264.68 144.37 265.47 143.44 265.85 142.36 265.2 141.94 266.51 140.01 267.52 139.44 268.52 137.82 270.79 137.39 272.11 136.71 272.84 134.73 275.54 131.07 275.58 129.9 279.32 142.68 279.62 144.1 279.54 146.51 278.24 154.41 278.06 157.08 278.42 190.41 271.66 190.44 271.66 190.86 269.35 190.87 269.36 190.45 258.23 190.49 249.87 190.63 Z" id="33912"/>
<path d="M 409.33 230.07 409.5 229.76 409.24 213.74 409.05 205.51 409.01 201.46 408.63 178.82 419.99 178.82 444.76 178.76 452.89 178.68 461.36 178.82 469.73 177.96 471.49 177.98 476.03 177.61 482.26 177.57 491.04 177.16 505.45 177.02 515.43 177.19 519.05 177.19 567.01 176.77 567.69 175.76 568.08 174.31 569.29 173.3 568.51 172.12 567.38 171.58 566.86 169.74 565.75 168.72 564.1 168.82 562.35 167.82 562.73 166.73 562.67 165.06 561.42 164.01 561.87 163.27 561.1 162.19 560.64 160.89 559.79 159.82 558.88 157.56 560.06 155.72 559.93 154.73 558.67 154.34 558.66 153.32 560.08 152 561.24 149.78 560.56 148.29 559.47 147.21 559.61 144.35 557.43 139.92 564 142.97 566.51 143.64 568.84 144.93 572.37 145.85 579.26 145.13 580.49 144.14 580.78 143.92 585.88 142.25 588.41 141.58 593.55 141.09 594.61 141.21 597.43 141.93 600.48 141.14 602.13 139.92 609.9 137.69 611.77 137.1 616.06 136.82 617.95 135.71 622.15 139.48 626.02 143.92 626.6 144.14 629.03 143.93 630.02 144.46 631.18 145.95 631.39 148.37 633.97 152.82 635.1 153.81 637.71 155.34 645.2 155.61 647.54 155.52 648.95 155.16 649.89 154.4 650.75 154.27 652.83 154.87 655.51 154.85 655.66 167.5 655.67 171.86 655.94 184.96 656.09 187.77 656.61 203.13 654.51 203.27 653.44 202.87 650.26 203.04 647.61 203.34 646.99 202.54 644.7 201.88 643.65 192.23 640.69 192.91 636.13 196.22 633.08 198.05 632.48 198.78 630.16 200.21 627.05 201.92 625.68 202.36 624.58 201.93 621.51 202.88 620.14 204.07 619.81 218.76 623 225.42 623.61 226.85 615.8 226.94 615.9 234.04 617.26 235.22 619.42 235.34 619.85 234.25 627.01 234.2 628.55 234.65 628.6 239.28 629.51 242.11 630.03 243.11 630.53 245.52 631.89 247.59 632.91 250.12 633.59 251.27 632.51 253.47 635.43 253.76 638.67 254.84 641.1 254.98 643.32 254.24 646.77 255.41 648.3 255.65 652.06 256.65 654.63 255.6 655.4 255.48 659.12 256.47 661.44 256.04 663.12 256.37 664.83 257.06 666.02 258.02 666.85 259.48 666.9 261.4 666.57 264.29 667.83 267.45 668.65 269.94 668.91 271.58 669.39 272.55 668.78 273.14 668.19 274.99 668.05 276.42 668.71 278.44 668.09 279.24 667.75 280.6 667.96 283.88 668.5 285.16 667.63 286.89 667.79 287.16 670.65 287.13 670.73 292.89 670.68 299.57 675.78 299.55 676.37 301.92 678.8 302.18 677.78 304.56 677.87 305.76 677.19 307.29 677.13 308.48 678.32 309.95 678.55 311.04 678.06 314.5 677.45 316.35 677.98 317.05 677.32 319.75 676.73 320.34 677.12 322.32 678.04 324.03 666.78 324.18 656.61 324.59 634.19 324.98 630.13 325.08 620.23 325.21 612.6 325.11 602.92 325.27 585.99 325.71 575.4 325.86 565.8 325.88 556.08 326.05 556.1 325.95 540.37 326.21 534.16 326.27 534.19 327.83 533.01 339.95 531.68 352.72 532.06 368.1 532.18 375.53 532.37 413.86 532.39 420.45 532.5 434.65 532.49 438.91 532 441.87 532.51 444.53 532.57 446.81 530.7 475.9 530.44 477.32 525.18 496.96 523.26 496.17 518.11 481.81 516.89 480.31 515.9 480.09 513.83 480.11 503.67 480.13 495.95 480.2 494.93 479.32 494.78 460.06 494.72 457.49 494.43 456.98 486.1 449 475.31 439.43 474 438.79 468.83 438.89 468.77 437.43 468.61 415.54 469.06 415.44 468.87 399.12 468.48 397.99 468.38 395.88 468.41 386.68 468.28 382.23 463.41 382.31 440.81 382.32 440.9 359.91 440.17 356.84 440.78 354.78 441.01 352.71 442.35 352.71 441.8 351.76 441.01 351.45 441.1 349.08 444.76 349.39 449.9 349.43 449.94 343.52 451.61 343.19 451.75 338.73 455.44 338.82 456.07 330.03 456.65 327.38 455.94 322.94 455.46 321.55 455.64 320.78 455.91 316.16 455.1 313.98 454.96 311.85 454.58 310.63 454.72 307.08 453.84 306.03 453.85 305.39 454.71 302.83 437.38 302.96 437.67 297.35 437.27 295.78 437.02 288.14 437.01 284.93 436.72 269.67 432.4 261.71 439.08 261.7 463.44 261.75 465.08 261.72 482.51 261.02 488.35 260.98 489.71 260.67 491.24 259.26 491.55 258.13 491.45 244.66 479.14 244.79 477.53 244.7 464.27 245 464.36 231.86 450.62 231.33 448.66 231.4 442.03 233.15 440.56 233.13 439.06 234.92 437.94 235.86 436.48 237.49 436.34 240.67 433.57 240.67 431.6 240.11 430.79 240.71 429.72 239.46 427.48 239.39 425.74 238.93 425.07 237.42 423.94 236.72 422.46 234.91 422.36 232.89 423.32 230.63 422.03 229.72 415.04 229.64 413.51 230.86 412.08 231.38 410.65 233.91 409.81 233.74 409.02 231.81 409.33 230.07 Z" id="34142"/>
<path d="M 517.47 563.22 506.86 563.26 506.92 570.58 506.41 570.9 505.34 569.61 505.11 568.92 503.92 568.58 502.76 569.96 502.41 572.62 503.04 573.19 501.97 574.85 500.5 574.56 500.27 575.17 502.51 575.93 502.86 576.81 502.55 577.86 502.9 578.92 503.78 579.96 501.85 579.88 496.49 579.96 485.33 579.95 471.5 580.09 462.45 579.93 462.01 578.17 462.7 577.21 465.12 574.51 466.57 573.93 473.52 569.96 476.17 568.3 477.49 567.31 480.01 566.37 484.22 566.52 485.39 566.21 486.63 565.39 487.51 563.89 488.59 563.44 491.62 562.7 493.78 561.54 495.17 561.08 498.55 558.53 501.75 555.82 505.02 552.11 505.06 550.92 506.52 551.47 507.31 551.11 507.32 549.51 508.21 548.37 508.2 546.54 507.21 545.28 508.03 544.27 509.28 543.61 508.47 542.32 510.39 540.33 511.15 540.32 510.96 541.31 511.81 541.39 511.38 542.44 511.37 544.6 511.83 546.35 512.88 546.59 512.88 547.48 511.59 547.67 511.89 548.55 511.84 552.52 517.25 552.58 519.18 553.19 520.55 554.55 520.64 555.51 518.55 556.86 517.51 557.28 516.03 557.05 514.51 557.98 514.64 559.33 515.64 561.07 517.29 562.69 517.47 563.22 Z" id="34139"/>
<path d="M 279.96 370.37 280.09 368.64 279.92 365.91 279.72 358.18 280.78 357.69 280.76 356.45 279.69 356.42 279.53 349.43 291.5 349.25 304.2 349.24 305.8 349.32 311.36 349.27 311.71 367.44 312.1 369.67 314.04 373.57 303.41 373.69 293.92 373.94 287.44 374.02 285.08 374.98 284.81 375.42 284.84 377.89 284.23 378.44 284.21 377.59 282.58 376.37 282.74 373.92 280.15 374.09 279.96 370.37 Z" id="34105"/>
<path d="M 278.42 190.41 278.46 193.9 278.8 196.09 283.17 211.7 284.39 215.26 281.98 214.87 271.9 215.08 267.02 214.79 265.08 215.62 263.02 213.17 263.3 212.96 263.08 209.23 261.62 209.94 260.19 209.6 256.5 205.18 256.06 204.45 251.94 194.52 250.71 192.12 249.89 191.24 249.87 190.63 258.23 190.49 269.36 190.45 269.35 190.87 271.66 190.86 271.66 190.44 278.42 190.41 Z" id="33967"/>
<path d="M 200.97 33.79 204.76 40.66 202.12 40.65 202.94 42.15 196.03 42.17 195.85 46.27 196.03 50.25 193.56 50.31 193.33 50.78 190.88 50.65 190.35 50.16 186.61 50.13 186.49 51.1 186.39 59.03 177.35 63.16 177.11 63.68 176.85 75.19 177.42 75.48 177.41 77.24 176.85 77.25 176.84 79.7 176.19 79.7 176.19 81.1 176.84 81.09 176.85 83.45 180.24 83.45 180.23 83.96 176.19 83.96 176.13 87.81 176.77 88.54 176.6 94.27 176.61 98.19 176.79 100.32 176.7 100.49 173.12 101.93 169.74 103.46 168.43 101.08 167.62 100.67 163.17 100.66 163.17 101.14 161.45 101.14 161.46 100.66 158.75 100.65 158.74 101.61 157.5 101.12 155.81 100.89 154.67 101.25 154.67 100.38 139.65 100.36 134.79 100.19 130.53 100.15 129.73 101.47 129.81 92.08 129.62 92.13 129.58 101.62 130.09 101.91 130.16 104.47 130.59 104.9 128.71 105.42 128 106.33 129.7 107.51 126.97 108.77 128.86 111.25 129.68 112.91 129.82 114.15 130.83 115.37 130.29 116.37 128.99 115.73 126.49 115.73 125.67 116.69 124.01 117.98 124.87 118.88 126.77 121.6 127.86 123.42 128.83 126.43 129.01 128.8 128.76 131.62 127.77 134.83 127.17 136.33 125.49 139.36 123.71 144.43 122.91 147.35 122.89 148.97 123.32 150.51 116.94 150.6 116.27 148.61 115.77 147.84 114.59 147.23 114.22 145.7 114.15 143.92 111.14 139.1 107.98 136.15 107.7 134.89 106.89 133.95 106.09 133.56 105.18 130.92 104.13 129.7 103.6 124.99 102.93 121.72 100.7 117.92 101.24 117.85 100.97 115.68 99.63 115.53 99.3 114.55 99 110.92 99.27 108.66 100.18 106.18 101.04 104.45 100.74 102.13 101.43 97.89 102.04 96.5 102.2 94 102.72 93.11 104.02 92.75 107.57 92.3 108.41 94.21 109.47 94.2 108.87 91.86 108.73 86.5 110.43 80.21 111.39 76.11 112.36 68.83 113.02 65.85 114.87 61.81 115.38 60.07 118.88 55.33 121.92 46.53 122.21 44.92 122.2 42.81 123.34 38.79 124.71 36.97 125.45 33.55 127.68 33.58 127.39 36.14 126.88 39.09 126.28 41.11 126.33 41.91 127.61 41.86 131.2 43.38 133.08 43.12 134.98 43.18 137.08 42.47 138.8 41.48 140.42 41.42 140.46 37.82 140.63 33.61 159.07 33.69 186.72 33.76 200.97 33.79 Z" id="33993"/>
<path d="M 223.89 131.83 222.71 131.83 221.02 131.27 216.37 128.05 216.03 123.13 217.6 114.98 217.9 114.29 217.72 112.11 220.16 110.24 229.04 101.83 235.31 99.87 237.47 102.89 238.87 102.46 240.6 101.53 241.02 102.07 241.1 105.16 240.97 106.63 241.07 110.88 241.65 111.97 243.11 113.54 243.6 114.5 243.74 117.01 243.65 119.03 243.76 127.36 243.72 129.02 242.01 129.05 242.05 131.39 237.21 131.48 234.57 131.61 226.58 131.66 223.89 131.83 Z" id="33901"/>
<path d="M 352.51 88.36 352.57 81.14 349.77 81.2 334.13 81.35 324.97 81.47 322.03 80.25 317.15 80.08 316.82 79.59 313.85 79.57 315.03 77.24 320.74 77.3 320.47 75.41 319.13 74.25 317.8 74.61 316.46 74.44 317.49 72.4 326.82 72.28 343.04 72.01 342.96 64.77 336.03 64.78 333.93 64.99 324.69 66.86 324.62 62.86 329.21 62.8 329.2 61.25 331.15 61.22 331.09 60.04 325.79 58.84 321.57 59.69 317.4 60.3 311.38 61.34 309.7 62.31 305.96 63.57 303.44 63.89 297.94 63.54 297.31 63.61 297.13 61.36 297.24 59.57 297.19 52.13 297.35 34.05 317.23 34.04 348.57 34.04 374.3 34.05 407.4 34.07 407.24 45 407.19 56.98 407.22 80.57 407.16 84.45 405.44 84.47 405.48 86.59 407.11 86.58 407.09 88.6 402.27 88.63 402.27 88.8 395 88.85 393.62 88.77 389.15 88.89 389.06 84.76 382.04 84.86 381.89 80.79 377 80.76 362.55 81 359.83 81.14 358.39 83.28 357.55 82.19 356.08 81.98 356.43 83.26 357.86 84.05 357.47 84.64 355.71 84.82 355.78 85.31 354.09 85.48 353.08 86.41 353.31 88.14 352.51 88.36 Z" id="33920"/>
<path d="M 290.63 214.95 289.69 214.95 289.62 213.58 288.64 212.23 286.18 210.7 284.89 209.45 284.13 208.03 285.05 207.63 283.39 205.52 283.35 203.1 285.33 203.68 286.06 203.56 287.67 202.6 294.99 202.65 299.31 202.58 299.32 205.26 297.29 205.3 297.36 206.76 296.08 209.62 291.63 211.21 291.01 211.22 291.05 213.41 290.63 214.95 Z" id="33965"/>
</g>
</svg>